<?xml version="1.0"?>
<svg version="1.1" id="topsvg"
xmlns="http://www.w3.org/2000/svg" xmlns:xlink="http://www.w3.org/1999/xlink"
xmlns:cml="http://www.xml-cml.org/schema" x="0" y="0" width="200px" height="200px" viewBox="0 0 100 100">
<title>ncaa.pdb - Open Babel Depiction</title>
<rect x="0" y="0" width="100" height="100" fill="white"/>
<g transform="translate(0,0)">
<svg width="100" height="100" x="0" y="0" viewBox="0 0 431.769 343.923"
font-family="sans-serif" stroke="rgb(0,0,0)" stroke-width="2"  stroke-linecap="round">
<line x1="80.0" y1="80.0" x2="53.0" y2="80.0" opacity="1.0" stroke="rgb(0,0,0)"  stroke-width="2.0"/>
<line x1="80.0" y1="80.0" x2="66.5" y2="103.4" opacity="1.0" stroke="rgb(0,0,0)"  stroke-width="2.0"/>
<line x1="80.0" y1="80.0" x2="80.0" y2="53.0" opacity="1.0" stroke="rgb(0,0,0)"  stroke-width="2.0"/>
<line x1="80.0" y1="80.0" x2="114.6" y2="100.0" opacity="1.0" stroke="rgb(0,0,0)"  stroke-width="2.0"/>
<line x1="114.6" y1="100.0" x2="114.6" y2="127.0" opacity="1.0" stroke="rgb(0,0,0)"  stroke-width="2.0"/>
<line x1="113.1" y1="97.4" x2="136.5" y2="83.9" opacity="1.0" stroke="rgb(0,0,0)"  stroke-width="2.0"/>
<line x1="116.1" y1="102.6" x2="139.5" y2="89.1" opacity="1.0" stroke="rgb(0,0,0)"  stroke-width="2.0"/>
<line x1="103.4" y1="146.5" x2="91.3" y2="153.5" opacity="1.0" stroke="rgb(0,0,0)"  stroke-width="2.0"/>
<line x1="125.9" y1="146.5" x2="149.3" y2="160.0" opacity="1.0" stroke="rgb(0,0,0)"  stroke-width="2.0"/>
<line x1="102.3" y1="191.6" x2="129.3" y2="191.6" opacity="1.0" stroke="rgb(0,0,0)"  stroke-width="2.0"/>
<line x1="102.3" y1="197.6" x2="129.3" y2="197.6" opacity="1.0" stroke="rgb(0,0,0)"  stroke-width="2.0"/>
<line x1="149.3" y1="160.0" x2="129.3" y2="194.6" opacity="1.0" stroke="rgb(0,0,0)"  stroke-width="2.0"/>
<polygon points="149.282032 160.000000 159.217931 134.790519 166.146134 138.790519 " stroke-width="2.000000" fill="rgb(0,0,0)"  stroke="rgb(0,0,0)" />
<line x1="149.3" y1="160.0" x2="183.9" y2="180.0" opacity="1.0" stroke="rgb(0,0,0)"  stroke-width="2.0"/>
<line x1="129.3" y1="194.6" x2="142.8" y2="218.0" opacity="1.0" stroke="rgb(0,0,0)"  stroke-width="2.0"/>
<line x1="253.2" y1="180.0" x2="253.2" y2="207.0" opacity="1.0" stroke="rgb(0,0,0)"  stroke-width="2.0"/>
<line x1="380.5" y1="106.5" x2="357.1" y2="120.0" opacity="1.0" stroke="rgb(0,0,0)"  stroke-width="2.0"/>
<line x1="183.9" y1="180.0" x2="218.6" y2="160.0" opacity="1.0" stroke="rgb(0,0,0)"  stroke-width="2.0"/>
<line x1="183.9" y1="180.0" x2="197.4" y2="203.4" opacity="1.0" stroke="rgb(0,0,0)"  stroke-width="2.0"/>
<line x1="183.9" y1="180.0" x2="170.4" y2="203.4" opacity="1.0" stroke="rgb(0,0,0)"  stroke-width="2.0"/>
<line x1="322.5" y1="207.0" x2="322.5" y2="180.0" opacity="1.0" stroke="rgb(0,0,0)"  stroke-width="2.0"/>
<line x1="218.6" y1="120.0" x2="195.2" y2="106.5" opacity="1.0" stroke="rgb(0,0,0)"  stroke-width="2.0"/>
<line x1="322.5" y1="73.0" x2="322.5" y2="100.0" opacity="1.0" stroke="rgb(0,0,0)"  stroke-width="2.0"/>
<line x1="253.2" y1="100.0" x2="253.2" y2="73.0" opacity="1.0" stroke="rgb(0,0,0)"  stroke-width="2.0"/>
<line x1="357.1" y1="160.0" x2="380.5" y2="173.5" opacity="1.0" stroke="rgb(0,0,0)"  stroke-width="2.0"/>
<line x1="129.3" y1="290.9" x2="129.3" y2="263.9" opacity="1.0" stroke="rgb(0,0,0)"  stroke-width="2.0"/>
<line x1="152.7" y1="277.4" x2="129.3" y2="263.9" opacity="1.0" stroke="rgb(0,0,0)"  stroke-width="2.0"/>
<line x1="102.3" y1="263.9" x2="129.3" y2="263.9" opacity="1.0" stroke="rgb(0,0,0)"  stroke-width="2.0"/>
<line x1="129.3" y1="263.9" x2="142.8" y2="240.5" opacity="1.0" stroke="rgb(0,0,0)"  stroke-width="2.0"/>
<line x1="176.3" y1="229.3" x2="162.3" y2="229.3" opacity="1.0" stroke="rgb(0,0,0)"  stroke-width="2.0"/>
<line x1="253.2" y1="180.0" x2="218.6" y2="160.0" opacity="1.0" stroke="rgb(0,0,0)"  stroke-width="2.0"/>
<line x1="218.6" y1="160.0" x2="218.6" y2="120.0" opacity="1.0" stroke="rgb(0,0,0)"  stroke-width="2.0"/>
<line x1="225.8" y1="154.0" x2="225.8" y2="126.0" opacity="1.0" stroke="rgb(0,0,0)"  stroke-width="2.0"/>
<line x1="218.6" y1="120.0" x2="253.2" y2="100.0" opacity="1.0" stroke="rgb(0,0,0)"  stroke-width="2.0"/>
<line x1="253.2" y1="100.0" x2="287.8" y2="120.0" opacity="1.0" stroke="rgb(0,0,0)"  stroke-width="2.0"/>
<line x1="254.8" y1="109.2" x2="279.0" y2="123.2" opacity="1.0" stroke="rgb(0,0,0)"  stroke-width="2.0"/>
<line x1="287.8" y1="120.0" x2="287.8" y2="160.0" opacity="1.0" stroke="rgb(0,0,0)"  stroke-width="2.0"/>
<line x1="287.8" y1="160.0" x2="253.2" y2="180.0" opacity="1.0" stroke="rgb(0,0,0)"  stroke-width="2.0"/>
<line x1="279.0" y1="156.8" x2="254.8" y2="170.8" opacity="1.0" stroke="rgb(0,0,0)"  stroke-width="2.0"/>
<line x1="357.1" y1="120.0" x2="357.1" y2="160.0" opacity="1.0" stroke="rgb(0,0,0)"  stroke-width="2.0"/>
<line x1="357.1" y1="160.0" x2="322.5" y2="180.0" opacity="1.0" stroke="rgb(0,0,0)"  stroke-width="2.0"/>
<line x1="348.3" y1="156.8" x2="324.1" y2="170.8" opacity="1.0" stroke="rgb(0,0,0)"  stroke-width="2.0"/>
<line x1="322.5" y1="180.0" x2="287.8" y2="160.0" opacity="1.0" stroke="rgb(0,0,0)"  stroke-width="2.0"/>
<line x1="287.8" y1="120.0" x2="322.5" y2="100.0" opacity="1.0" stroke="rgb(0,0,0)"  stroke-width="2.0"/>
<line x1="322.5" y1="100.0" x2="357.1" y2="120.0" opacity="1.0" stroke="rgb(0,0,0)"  stroke-width="2.0"/>
<line x1="324.1" y1="109.2" x2="348.3" y2="123.2" opacity="1.0" stroke="rgb(0,0,0)"  stroke-width="2.0"/>
<text x="316.487113" y="68.000000" fill="rgb(191,191,191)" stroke-width="0" font-weight="bold" font-size="16" >H</text>
<text x="247.205081" y="228.000000" fill="rgb(191,191,191)" stroke-width="0" font-weight="bold" font-size="16" >H</text>
<text x="247.205081" y="68.000000" fill="rgb(191,191,191)" stroke-width="0" font-weight="bold" font-size="16" >H</text>
<text x="177.923048" y="108.000000" fill="rgb(191,191,191)" stroke-width="0" font-weight="bold" font-size="16" >H</text>
<text x="385.769145" y="188.000000" fill="rgb(191,191,191)" stroke-width="0" font-weight="bold" font-size="16" >H</text>
<text x="123.282032" y="311.923048" fill="rgb(191,191,191)" stroke-width="0" font-weight="bold" font-size="16" >H</text>
<text x="157.923048" y="291.923048" fill="rgb(191,191,191)" stroke-width="0" font-weight="bold" font-size="16" >H</text>
<text x="83.282032" y="271.923048" fill="rgb(191,191,191)" stroke-width="0" font-weight="bold" font-size="16" >H</text>
<text x="183.282032" y="237.282032" fill="rgb(191,191,191)" stroke-width="0" font-weight="bold" font-size="16" >H</text>
<text x="143.282032" y="237.282032" fill="rgb(12,12,255)" stroke-width="0" font-weight="bold" font-size="16" >N</text>
<text x="34.000000" y="88.000000" fill="rgb(191,191,191)" stroke-width="0" font-weight="bold" font-size="16" >H</text>
<text x="74.000000" y="48.000000" fill="rgb(191,191,191)" stroke-width="0" font-weight="bold" font-size="16" >H</text>
<text x="54.000000" y="122.641016" fill="rgb(191,191,191)" stroke-width="0" font-weight="bold" font-size="16" >H</text>
<text x="143.282032" y="88.000000" fill="rgb(255,12,12)" stroke-width="0" font-weight="bold" font-size="16" >O</text>
<text x="108.641016" y="148.000000" fill="rgb(12,12,255)" stroke-width="0" font-weight="bold" font-size="16" >N</text>
<text x="83.282032" y="202.641016" fill="rgb(255,12,12)" stroke-width="0" font-weight="bold" font-size="16" >O</text>
<text x="385.769145" y="108.000000" fill="rgb(191,191,191)" stroke-width="0" font-weight="bold" font-size="16" >H</text>
<text x="74.000000" y="168.000000" fill="rgb(191,191,191)" stroke-width="0" font-weight="bold" font-size="16" >H</text>
<text x="316.487113" y="228.000000" fill="rgb(191,191,191)" stroke-width="0" font-weight="bold" font-size="16" >H</text>
<text x="163.282032" y="133.358984" fill="rgb(191,191,191)" stroke-width="0" font-weight="bold" font-size="16" >H</text>
<text x="197.923048" y="222.641016" fill="rgb(191,191,191)" stroke-width="0" font-weight="bold" font-size="16" >H</text>
<text x="157.923048" y="222.641016" fill="rgb(191,191,191)" stroke-width="0" font-weight="bold" font-size="16" >H</text>
</svg>
</g>
</svg>
