<?xml version="1.0"?>
<svg version="1.1" id="topsvg"
xmlns="http://www.w3.org/2000/svg" xmlns:xlink="http://www.w3.org/1999/xlink"
xmlns:cml="http://www.xml-cml.org/schema" x="0" y="0" width="200px" height="200px" viewBox="0 0 100 100">
<title>ncaa.pdb - Open Babel Depiction</title>
<rect x="0" y="0" width="100" height="100" fill="white"/>
<g transform="translate(0,0)">
<svg width="100" height="100" x="0" y="0" viewBox="0 0 343.923 333.205"
font-family="sans-serif" stroke="rgb(0,0,0)" stroke-width="2"  stroke-linecap="round">
<line x1="220.0" y1="258.6" x2="243.4" y2="272.1" opacity="1.0" stroke="rgb(0,0,0)"  stroke-width="2.0"/>
<line x1="220.0" y1="258.6" x2="243.4" y2="245.1" opacity="1.0" stroke="rgb(0,0,0)"  stroke-width="2.0"/>
<line x1="220.0" y1="258.6" x2="206.5" y2="281.9" opacity="1.0" stroke="rgb(0,0,0)"  stroke-width="2.0"/>
<line x1="220.0" y1="258.6" x2="200.0" y2="223.9" opacity="1.0" stroke="rgb(0,0,0)"  stroke-width="2.0"/>
<line x1="200.0" y1="223.9" x2="213.5" y2="200.5" opacity="1.0" stroke="rgb(0,0,0)"  stroke-width="2.0"/>
<line x1="200.0" y1="226.9" x2="173.0" y2="226.9" opacity="1.0" stroke="rgb(0,0,0)"  stroke-width="2.0"/>
<line x1="200.0" y1="220.9" x2="173.0" y2="220.9" opacity="1.0" stroke="rgb(0,0,0)"  stroke-width="2.0"/>
<line x1="233.0" y1="189.3" x2="247.0" y2="189.3" opacity="1.0" stroke="rgb(0,0,0)"  stroke-width="2.0"/>
<line x1="213.5" y1="178.0" x2="200.0" y2="154.6" opacity="1.0" stroke="rgb(0,0,0)"  stroke-width="2.0"/>
<line x1="200.0" y1="154.6" x2="180.0" y2="120.0" opacity="1.0" stroke="rgb(0,0,0)"  stroke-width="2.0"/>
<line x1="200.0" y1="154.6" x2="234.6" y2="134.6" opacity="1.0" stroke="rgb(0,0,0)"  stroke-width="2.0"/>
<polygon points="200.000000 154.641016 178.790519 171.505118 174.790519 164.576915 " stroke-width="2.000000" fill="rgb(0,0,0)"  stroke="rgb(0,0,0)" />
<line x1="236.1" y1="132.0" x2="259.5" y2="145.5" opacity="1.0" stroke="rgb(0,0,0)"  stroke-width="2.0"/>
<line x1="233.1" y1="137.2" x2="256.5" y2="150.7" opacity="1.0" stroke="rgb(0,0,0)"  stroke-width="2.0"/>
<line x1="234.6" y1="134.6" x2="234.6" y2="107.6" opacity="1.0" stroke="rgb(0,0,0)"  stroke-width="2.0"/>
<line x1="80.0" y1="72.4" x2="80.0" y2="58.4" opacity="1.0" stroke="rgb(0,0,0)"  stroke-width="2.0"/>
<line x1="93.0" y1="85.4" x2="120.0" y2="85.4" opacity="1.0" stroke="rgb(0,0,0)"  stroke-width="2.0"/>
<line x1="80.0" y1="98.4" x2="80.0" y2="112.4" opacity="1.0" stroke="rgb(0,0,0)"  stroke-width="2.0"/>
<line x1="67.0" y1="85.4" x2="53.0" y2="85.4" opacity="1.0" stroke="rgb(0,0,0)"  stroke-width="2.0"/>
<line x1="180.0" y1="120.0" x2="180.0" y2="93.0" opacity="1.0" stroke="rgb(0,0,0)"  stroke-width="2.0"/>
<line x1="180.0" y1="120.0" x2="140.0" y2="120.0" opacity="1.0" stroke="rgb(0,0,0)"  stroke-width="2.0"/>
<line x1="180.0" y1="120.0" x2="203.4" y2="106.5" opacity="1.0" stroke="rgb(0,0,0)"  stroke-width="2.0"/>
<line x1="140.0" y1="120.0" x2="116.6" y2="133.5" opacity="1.0" stroke="rgb(0,0,0)"  stroke-width="2.0"/>
<line x1="140.0" y1="120.0" x2="120.0" y2="85.4" opacity="1.0" stroke="rgb(0,0,0)"  stroke-width="2.0"/>
<line x1="140.0" y1="120.0" x2="140.0" y2="147.0" opacity="1.0" stroke="rgb(0,0,0)"  stroke-width="2.0"/>
<line x1="120.0" y1="85.4" x2="120.0" y2="58.4" opacity="1.0" stroke="rgb(0,0,0)"  stroke-width="2.0"/>
<line x1="120.0" y1="85.4" x2="143.4" y2="71.9" opacity="1.0" stroke="rgb(0,0,0)"  stroke-width="2.0"/>
<line x1="269.3" y1="74.6" x2="282.8" y2="51.3" opacity="1.0" stroke="rgb(0,0,0)"  stroke-width="2.0"/>
<line x1="269.3" y1="74.6" x2="245.9" y2="88.1" opacity="1.0" stroke="rgb(0,0,0)"  stroke-width="2.0"/>
<line x1="269.3" y1="74.6" x2="255.8" y2="51.3" opacity="1.0" stroke="rgb(0,0,0)"  stroke-width="2.0"/>
<line x1="269.3" y1="74.6" x2="292.7" y2="88.1" opacity="1.0" stroke="rgb(0,0,0)"  stroke-width="2.0"/>
<line x1="223.4" y1="88.1" x2="211.3" y2="81.1" opacity="1.0" stroke="rgb(0,0,0)"  stroke-width="2.0"/>
<text x="159.358984" y="182.641016" fill="rgb(191,191,191)" stroke-width="0" font-weight="bold" font-size="16" >H</text>
<text x="194.000000" y="82.641016" fill="rgb(191,191,191)" stroke-width="0" font-weight="bold" font-size="16" >H</text>
<text x="297.923048" y="102.641016" fill="rgb(191,191,191)" stroke-width="0" font-weight="bold" font-size="16" >H</text>
<text x="283.282032" y="48.000000" fill="rgb(191,191,191)" stroke-width="0" font-weight="bold" font-size="16" >H</text>
<text x="243.282032" y="48.000000" fill="rgb(191,191,191)" stroke-width="0" font-weight="bold" font-size="16" >H</text>
<text x="228.641016" y="102.641016" fill="rgb(12,12,255)" stroke-width="0" font-weight="bold" font-size="16" >N</text>
<text x="148.641016" y="73.358984" fill="rgb(191,191,191)" stroke-width="0" font-weight="bold" font-size="16" >H</text>
<text x="114.000000" y="53.358984" fill="rgb(191,191,191)" stroke-width="0" font-weight="bold" font-size="16" >H</text>
<text x="99.358984" y="148.000000" fill="rgb(191,191,191)" stroke-width="0" font-weight="bold" font-size="16" >H</text>
<text x="134.000000" y="168.000000" fill="rgb(191,191,191)" stroke-width="0" font-weight="bold" font-size="16" >H</text>
<text x="208.641016" y="108.000000" fill="rgb(191,191,191)" stroke-width="0" font-weight="bold" font-size="16" >H</text>
<text x="174.000000" y="88.000000" fill="rgb(191,191,191)" stroke-width="0" font-weight="bold" font-size="16" >H</text>
<text x="74.000000" y="53.358984" fill="rgb(191,191,191)" stroke-width="0" font-weight="bold" font-size="16" >H</text>
<text x="34.000000" y="93.358984" fill="rgb(191,191,191)" stroke-width="0" font-weight="bold" font-size="16" >H</text>
<text x="74.000000" y="133.358984" fill="rgb(191,191,191)" stroke-width="0" font-weight="bold" font-size="16" >H</text>
<text x="254.000000" y="197.282032" fill="rgb(191,191,191)" stroke-width="0" font-weight="bold" font-size="16" >H</text>
<text x="263.282032" y="162.641016" fill="rgb(255,12,12)" stroke-width="0" font-weight="bold" font-size="16" >O</text>
<text x="74.000000" y="93.358984" fill="rgb(12,12,255)" stroke-width="0" font-weight="bold" font-size="16" >N</text>
<text x="214.000000" y="197.282032" fill="rgb(12,12,255)" stroke-width="0" font-weight="bold" font-size="16" >N</text>
<text x="194.000000" y="301.205081" fill="rgb(191,191,191)" stroke-width="0" font-weight="bold" font-size="16" >H</text>
<text x="248.641016" y="246.564065" fill="rgb(191,191,191)" stroke-width="0" font-weight="bold" font-size="16" >H</text>
<text x="248.641016" y="286.564065" fill="rgb(191,191,191)" stroke-width="0" font-weight="bold" font-size="16" >H</text>
<text x="154.000000" y="231.923048" fill="rgb(255,12,12)" stroke-width="0" font-weight="bold" font-size="16" >O</text>
</svg>
</g>
</svg>
