<?xml version="1.0"?>
<svg version="1.1" id="topsvg"
xmlns="http://www.w3.org/2000/svg" xmlns:xlink="http://www.w3.org/1999/xlink"
xmlns:cml="http://www.xml-cml.org/schema" x="0" y="0" width="200px" height="200px" viewBox="0 0 100 100">
<title>ncaa.pdb - Open Babel Depiction</title>
<rect x="0" y="0" width="100" height="100" fill="white"/>
<g transform="translate(0,0)">
<svg width="100" height="100" x="0" y="0" viewBox="0 0 449.431 302.608"
font-family="sans-serif" stroke="rgb(0,0,0)" stroke-width="2"  stroke-linecap="round">
<line x1="376.6" y1="214.5" x2="398.2" y2="227.0" opacity="1.0" stroke="rgb(0,0,0)"  stroke-width="2.0"/>
<line x1="376.6" y1="214.5" x2="398.2" y2="202.0" opacity="1.0" stroke="rgb(0,0,0)"  stroke-width="2.0"/>
<line x1="376.6" y1="214.5" x2="364.1" y2="236.1" opacity="1.0" stroke="rgb(0,0,0)"  stroke-width="2.0"/>
<line x1="376.6" y1="214.5" x2="357.6" y2="181.6" opacity="1.0" stroke="rgb(0,0,0)"  stroke-width="2.0"/>
<line x1="357.6" y1="181.6" x2="294.7" y2="181.6" opacity="1.0" stroke="rgb(0,0,0)"  stroke-width="2.0"/>
<line x1="355.0" y1="180.1" x2="367.5" y2="158.5" opacity="1.0" stroke="rgb(0,0,0)"  stroke-width="2.0"/>
<line x1="360.2" y1="183.1" x2="372.7" y2="161.5" opacity="1.0" stroke="rgb(0,0,0)"  stroke-width="2.0"/>
<line x1="275.2" y1="192.9" x2="269.2" y2="203.2" opacity="1.0" stroke="rgb(0,0,0)"  stroke-width="2.0"/>
<line x1="275.2" y1="170.4" x2="262.7" y2="148.8" opacity="1.0" stroke="rgb(0,0,0)"  stroke-width="2.0"/>
<line x1="315.7" y1="144.9" x2="294.1" y2="132.4" opacity="1.0" stroke="rgb(0,0,0)"  stroke-width="2.0"/>
<line x1="318.7" y1="139.7" x2="297.1" y2="127.2" opacity="1.0" stroke="rgb(0,0,0)"  stroke-width="2.0"/>
<line x1="262.7" y1="148.8" x2="295.6" y2="129.8" opacity="1.0" stroke="rgb(0,0,0)"  stroke-width="2.0"/>
<line x1="262.7" y1="148.8" x2="197.0" y2="186.7" opacity="1.0" stroke="rgb(0,0,0)"  stroke-width="2.0"/>
<polygon points="262.719841 148.761990 246.542919 128.742739 253.471122 124.742739 " stroke-width="2.000000" fill="rgb(0,0,0)"  stroke="rgb(0,0,0)" />
<line x1="295.6" y1="129.8" x2="295.6" y2="104.8" opacity="1.0" stroke="rgb(0,0,0)"  stroke-width="2.0"/>
<line x1="193.2" y1="234.1" x2="174.7" y2="217.4" opacity="1.0" stroke="rgb(0,0,0)"  stroke-width="2.0"/>
<line x1="197.0" y1="186.7" x2="218.6" y2="199.2" opacity="1.0" stroke="rgb(0,0,0)"  stroke-width="2.0"/>
<line x1="169.5" y1="241.8" x2="174.7" y2="217.4" opacity="1.0" stroke="rgb(0,0,0)"  stroke-width="2.0"/>
<line x1="169.5" y1="131.6" x2="174.7" y2="156.0" opacity="1.0" stroke="rgb(0,0,0)"  stroke-width="2.0"/>
<line x1="174.7" y1="156.0" x2="193.2" y2="139.3" opacity="1.0" stroke="rgb(0,0,0)"  stroke-width="2.0"/>
<line x1="105.7" y1="224.7" x2="105.7" y2="249.6" opacity="1.0" stroke="rgb(0,0,0)"  stroke-width="2.0"/>
<line x1="105.7" y1="148.8" x2="105.7" y2="123.8" opacity="1.0" stroke="rgb(0,0,0)"  stroke-width="2.0"/>
<line x1="72.9" y1="167.7" x2="51.3" y2="155.3" opacity="1.0" stroke="rgb(0,0,0)"  stroke-width="2.0"/>
<line x1="51.3" y1="218.2" x2="72.9" y2="205.7" opacity="1.0" stroke="rgb(0,0,0)"  stroke-width="2.0"/>
<line x1="340.9" y1="51.3" x2="328.4" y2="72.9" opacity="1.0" stroke="rgb(0,0,0)"  stroke-width="2.0"/>
<line x1="316.0" y1="51.3" x2="328.4" y2="72.9" opacity="1.0" stroke="rgb(0,0,0)"  stroke-width="2.0"/>
<line x1="350.1" y1="85.3" x2="328.4" y2="72.9" opacity="1.0" stroke="rgb(0,0,0)"  stroke-width="2.0"/>
<line x1="328.4" y1="72.9" x2="306.8" y2="85.3" opacity="1.0" stroke="rgb(0,0,0)"  stroke-width="2.0"/>
<line x1="274.0" y1="79.4" x2="284.3" y2="85.3" opacity="1.0" stroke="rgb(0,0,0)"  stroke-width="2.0"/>
<line x1="105.7" y1="224.7" x2="138.6" y2="205.7" opacity="1.0" stroke="rgb(0,0,0)"  stroke-width="2.0"/>
<line x1="107.3" y1="215.4" x2="129.8" y2="202.4" opacity="1.0" stroke="rgb(0,0,0)"  stroke-width="2.0"/>
<line x1="138.6" y1="205.7" x2="138.6" y2="167.7" opacity="1.0" stroke="rgb(0,0,0)"  stroke-width="2.0"/>
<line x1="138.6" y1="167.7" x2="105.7" y2="148.8" opacity="1.0" stroke="rgb(0,0,0)"  stroke-width="2.0"/>
<line x1="129.8" y1="171.0" x2="107.3" y2="158.0" opacity="1.0" stroke="rgb(0,0,0)"  stroke-width="2.0"/>
<line x1="105.7" y1="148.8" x2="72.9" y2="167.7" opacity="1.0" stroke="rgb(0,0,0)"  stroke-width="2.0"/>
<line x1="72.9" y1="167.7" x2="72.9" y2="205.7" opacity="1.0" stroke="rgb(0,0,0)"  stroke-width="2.0"/>
<line x1="80.1" y1="173.7" x2="80.1" y2="199.7" opacity="1.0" stroke="rgb(0,0,0)"  stroke-width="2.0"/>
<line x1="72.9" y1="205.7" x2="105.7" y2="224.7" opacity="1.0" stroke="rgb(0,0,0)"  stroke-width="2.0"/>
<line x1="197.0" y1="186.7" x2="174.7" y2="217.4" opacity="1.0" stroke="rgb(0,0,0)"  stroke-width="2.0"/>
<line x1="174.7" y1="217.4" x2="138.6" y2="205.7" opacity="1.0" stroke="rgb(0,0,0)"  stroke-width="2.0"/>
<line x1="138.6" y1="167.7" x2="174.7" y2="156.0" opacity="1.0" stroke="rgb(0,0,0)"  stroke-width="2.0"/>
<line x1="174.7" y1="156.0" x2="197.0" y2="186.7" opacity="1.0" stroke="rgb(0,0,0)"  stroke-width="2.0"/>
<text x="196.886430" y="138.616901" fill="rgb(191,191,191)" stroke-width="0" font-weight="bold" font-size="16" >H</text>
<text x="223.855287" y="213.685067" fill="rgb(191,191,191)" stroke-width="0" font-weight="bold" font-size="16" >H</text>
<text x="34.000000" y="232.659426" fill="rgb(191,191,191)" stroke-width="0" font-weight="bold" font-size="16" >H</text>
<text x="99.729108" y="270.608144" fill="rgb(191,191,191)" stroke-width="0" font-weight="bold" font-size="16" >H</text>
<text x="160.795055" y="126.890102" fill="rgb(191,191,191)" stroke-width="0" font-weight="bold" font-size="16" >H</text>
<text x="99.729108" y="118.813272" fill="rgb(191,191,191)" stroke-width="0" font-weight="bold" font-size="16" >H</text>
<text x="34.000000" y="156.761990" fill="rgb(191,191,191)" stroke-width="0" font-weight="bold" font-size="16" >H</text>
<text x="341.423308" y="48.000000" fill="rgb(191,191,191)" stroke-width="0" font-weight="bold" font-size="16" >H</text>
<text x="303.474590" y="48.000000" fill="rgb(191,191,191)" stroke-width="0" font-weight="bold" font-size="16" >H</text>
<text x="355.313503" y="99.838913" fill="rgb(191,191,191)" stroke-width="0" font-weight="bold" font-size="16" >H</text>
<text x="256.719841" y="80.864554" fill="rgb(191,191,191)" stroke-width="0" font-weight="bold" font-size="16" >H</text>
<text x="289.584395" y="99.838913" fill="rgb(12,12,255)" stroke-width="0" font-weight="bold" font-size="16" >N</text>
<text x="403.430549" y="241.465456" fill="rgb(191,191,191)" stroke-width="0" font-weight="bold" font-size="16" >H</text>
<text x="351.591636" y="255.355651" fill="rgb(191,191,191)" stroke-width="0" font-weight="bold" font-size="16" >H</text>
<text x="403.430549" y="203.516738" fill="rgb(191,191,191)" stroke-width="0" font-weight="bold" font-size="16" >H</text>
<text x="370.565995" y="156.761990" fill="rgb(255,12,12)" stroke-width="0" font-weight="bold" font-size="16" >O</text>
<text x="275.694200" y="189.626543" fill="rgb(12,12,255)" stroke-width="0" font-weight="bold" font-size="16" >N</text>
<text x="322.448949" y="156.761990" fill="rgb(255,12,12)" stroke-width="0" font-weight="bold" font-size="16" >O</text>
<text x="196.886430" y="250.804514" fill="rgb(191,191,191)" stroke-width="0" font-weight="bold" font-size="16" >H</text>
<text x="256.719841" y="222.491097" fill="rgb(191,191,191)" stroke-width="0" font-weight="bold" font-size="16" >H</text>
<text x="160.795055" y="262.531313" fill="rgb(191,191,191)" stroke-width="0" font-weight="bold" font-size="16" >H</text>
<text x="237.745482" y="123.897436" fill="rgb(191,191,191)" stroke-width="0" font-weight="bold" font-size="16" >H</text>
</svg>
</g>
</svg>
