<?xml version="1.0"?>
<svg version="1.1" id="topsvg"
xmlns="http://www.w3.org/2000/svg" xmlns:xlink="http://www.w3.org/1999/xlink"
xmlns:cml="http://www.xml-cml.org/schema" x="0" y="0" width="200px" height="200px" viewBox="0 0 100 100">
<title>ncaa.pdb - Open Babel Depiction</title>
<rect x="0" y="0" width="100" height="100" fill="white"/>
<g transform="translate(0,0)">
<svg width="100" height="100" x="0" y="0" viewBox="0 0 343.507 433.032"
font-family="sans-serif" stroke="rgb(0,0,0)" stroke-width="2"  stroke-linecap="round">
<line x1="265.7" y1="163.7" x2="244.2" y2="151.2" opacity="1.0" stroke="rgb(0,0,0)"  stroke-width="2.0"/>
<line x1="265.7" y1="163.7" x2="246.7" y2="196.4" opacity="1.0" stroke="rgb(0,0,0)"  stroke-width="2.0"/>
<line x1="265.7" y1="163.7" x2="265.7" y2="138.8" opacity="1.0" stroke="rgb(0,0,0)"  stroke-width="2.0"/>
<line x1="265.7" y1="163.7" x2="290.5" y2="163.7" opacity="1.0" stroke="rgb(0,0,0)"  stroke-width="2.0"/>
<line x1="256.6" y1="219.4" x2="244.2" y2="197.9" opacity="1.0" stroke="rgb(0,0,0)"  stroke-width="2.0"/>
<line x1="261.8" y1="216.4" x2="249.3" y2="194.9" opacity="1.0" stroke="rgb(0,0,0)"  stroke-width="2.0"/>
<line x1="246.7" y1="196.4" x2="221.9" y2="196.4" opacity="1.0" stroke="rgb(0,0,0)"  stroke-width="2.0"/>
<line x1="93.1" y1="51.3" x2="105.5" y2="72.8" opacity="1.0" stroke="rgb(0,0,0)"  stroke-width="2.0"/>
<line x1="80.7" y1="72.8" x2="105.5" y2="72.8" opacity="1.0" stroke="rgb(0,0,0)"  stroke-width="2.0"/>
<line x1="127.0" y1="60.3" x2="105.5" y2="72.8" opacity="1.0" stroke="rgb(0,0,0)"  stroke-width="2.0"/>
<line x1="127.3" y1="291.7" x2="152.2" y2="291.7" opacity="1.0" stroke="rgb(0,0,0)"  stroke-width="2.0"/>
<line x1="127.3" y1="297.7" x2="152.2" y2="297.7" opacity="1.0" stroke="rgb(0,0,0)"  stroke-width="2.0"/>
<line x1="202.4" y1="207.7" x2="171.1" y2="262.0" opacity="1.0" stroke="rgb(0,0,0)"  stroke-width="2.0"/>
<line x1="202.4" y1="185.2" x2="196.5" y2="174.9" opacity="1.0" stroke="rgb(0,0,0)"  stroke-width="2.0"/>
<line x1="105.5" y1="224.1" x2="171.1" y2="262.0" opacity="1.0" stroke="rgb(0,0,0)"  stroke-width="2.0"/>
<line x1="105.5" y1="224.1" x2="105.5" y2="186.3" opacity="1.0" stroke="rgb(0,0,0)"  stroke-width="2.0"/>
<line x1="105.5" y1="224.1" x2="80.7" y2="224.1" opacity="1.0" stroke="rgb(0,0,0)"  stroke-width="2.0"/>
<line x1="105.5" y1="224.1" x2="93.1" y2="245.6" opacity="1.0" stroke="rgb(0,0,0)"  stroke-width="2.0"/>
<polygon points="171.074115 261.957718 195.029029 271.169292 191.029029 278.097495 " stroke-width="2.000000" fill="rgb(0,0,0)"  stroke="rgb(0,0,0)" />
<line x1="171.1" y1="262.0" x2="152.2" y2="294.7" opacity="1.0" stroke="rgb(0,0,0)"  stroke-width="2.0"/>
<line x1="138.3" y1="167.4" x2="159.8" y2="179.8" opacity="1.0" stroke="rgb(0,0,0)"  stroke-width="2.0"/>
<line x1="72.8" y1="167.4" x2="51.3" y2="179.8" opacity="1.0" stroke="rgb(0,0,0)"  stroke-width="2.0"/>
<line x1="105.5" y1="110.6" x2="105.5" y2="72.8" opacity="1.0" stroke="rgb(0,0,0)"  stroke-width="2.0"/>
<line x1="138.3" y1="129.5" x2="159.8" y2="117.1" opacity="1.0" stroke="rgb(0,0,0)"  stroke-width="2.0"/>
<line x1="72.8" y1="129.5" x2="51.3" y2="117.1" opacity="1.0" stroke="rgb(0,0,0)"  stroke-width="2.0"/>
<line x1="152.2" y1="294.7" x2="164.6" y2="316.2" opacity="1.0" stroke="rgb(0,0,0)"  stroke-width="2.0"/>
<line x1="164.6" y1="338.8" x2="152.2" y2="360.3" opacity="1.0" stroke="rgb(0,0,0)"  stroke-width="2.0"/>
<line x1="184.1" y1="327.5" x2="195.9" y2="327.5" opacity="1.0" stroke="rgb(0,0,0)"  stroke-width="2.0"/>
<line x1="130.6" y1="372.7" x2="152.2" y2="360.3" opacity="1.0" stroke="rgb(0,0,0)"  stroke-width="2.0"/>
<line x1="130.6" y1="347.8" x2="152.2" y2="360.3" opacity="1.0" stroke="rgb(0,0,0)"  stroke-width="2.0"/>
<line x1="152.2" y1="360.3" x2="164.6" y2="381.8" opacity="1.0" stroke="rgb(0,0,0)"  stroke-width="2.0"/>
<line x1="72.8" y1="167.4" x2="105.5" y2="186.3" opacity="1.0" stroke="rgb(0,0,0)"  stroke-width="2.0"/>
<line x1="81.6" y1="164.1" x2="103.9" y2="177.0" opacity="1.0" stroke="rgb(0,0,0)"  stroke-width="2.0"/>
<line x1="105.5" y1="186.3" x2="138.3" y2="167.4" opacity="1.0" stroke="rgb(0,0,0)"  stroke-width="2.0"/>
<line x1="138.3" y1="167.4" x2="138.3" y2="129.5" opacity="1.0" stroke="rgb(0,0,0)"  stroke-width="2.0"/>
<line x1="131.1" y1="161.4" x2="131.1" y2="135.5" opacity="1.0" stroke="rgb(0,0,0)"  stroke-width="2.0"/>
<line x1="138.3" y1="129.5" x2="105.5" y2="110.6" opacity="1.0" stroke="rgb(0,0,0)"  stroke-width="2.0"/>
<line x1="105.5" y1="110.6" x2="72.8" y2="129.5" opacity="1.0" stroke="rgb(0,0,0)"  stroke-width="2.0"/>
<line x1="103.9" y1="119.8" x2="81.6" y2="132.8" opacity="1.0" stroke="rgb(0,0,0)"  stroke-width="2.0"/>
<line x1="72.8" y1="129.5" x2="72.8" y2="167.4" opacity="1.0" stroke="rgb(0,0,0)"  stroke-width="2.0"/>
<text x="165.074115" y="118.606367" fill="rgb(191,191,191)" stroke-width="0" font-weight="bold" font-size="16" >H</text>
<text x="80.618139" y="264.888409" fill="rgb(191,191,191)" stroke-width="0" font-weight="bold" font-size="16" >H</text>
<text x="61.699220" y="232.119880" fill="rgb(191,191,191)" stroke-width="0" font-weight="bold" font-size="16" >H</text>
<text x="197.842644" y="288.876637" fill="rgb(191,191,191)" stroke-width="0" font-weight="bold" font-size="16" >H</text>
<text x="165.074115" y="194.282042" fill="rgb(191,191,191)" stroke-width="0" font-weight="bold" font-size="16" >H</text>
<text x="34.000000" y="194.282042" fill="rgb(191,191,191)" stroke-width="0" font-weight="bold" font-size="16" >H</text>
<text x="34.000000" y="118.606367" fill="rgb(191,191,191)" stroke-width="0" font-weight="bold" font-size="16" >H</text>
<text x="183.993034" y="171.652132" fill="rgb(191,191,191)" stroke-width="0" font-weight="bold" font-size="16" >H</text>
<text x="165.074115" y="335.494776" fill="rgb(12,12,255)" stroke-width="0" font-weight="bold" font-size="16" >N</text>
<text x="113.386667" y="387.182223" fill="rgb(191,191,191)" stroke-width="0" font-weight="bold" font-size="16" >H</text>
<text x="113.386667" y="349.344385" fill="rgb(191,191,191)" stroke-width="0" font-weight="bold" font-size="16" >H</text>
<text x="202.911953" y="335.494776" fill="rgb(191,191,191)" stroke-width="0" font-weight="bold" font-size="16" >H</text>
<text x="165.074115" y="401.031833" fill="rgb(191,191,191)" stroke-width="0" font-weight="bold" font-size="16" >H</text>
<text x="108.317358" y="302.726247" fill="rgb(255,12,12)" stroke-width="0" font-weight="bold" font-size="16" >O</text>
<text x="297.506548" y="171.652132" fill="rgb(191,191,191)" stroke-width="0" font-weight="bold" font-size="16" >H</text>
<text x="226.900181" y="152.733213" fill="rgb(191,191,191)" stroke-width="0" font-weight="bold" font-size="16" >H</text>
<text x="259.668710" y="237.189189" fill="rgb(255,12,12)" stroke-width="0" font-weight="bold" font-size="16" >O</text>
<text x="259.668710" y="133.814294" fill="rgb(191,191,191)" stroke-width="0" font-weight="bold" font-size="16" >H</text>
<text x="80.618139" y="48.000000" fill="rgb(127,178,255)" stroke-width="0" font-weight="bold" font-size="16" >F</text>
<text x="61.699220" y="80.768529" fill="rgb(127,178,255)" stroke-width="0" font-weight="bold" font-size="16" >F</text>
<text x="132.305586" y="61.849610" fill="rgb(127,178,255)" stroke-width="0" font-weight="bold" font-size="16" >F</text>
<text x="202.911953" y="204.420660" fill="rgb(12,12,255)" stroke-width="0" font-weight="bold" font-size="16" >N</text>
</svg>
</g>
</svg>
